<svg version="1.1" id="Layer_1" xmlns="http://www.w3.org/2000/svg" xmlns:xlink="http://www.w3.org/1999/xlink" x="0px" y="0px"
	 width="100%" viewBox="0 0 352 400" enable-background="new 0 0 352 400" xml:space="preserve">
<path fill="#000000" opacity="1.000000" stroke="none" 
	d="
M260.000000,401.000000 
	C208.645767,401.000000 157.291550,401.000000 105.354874,400.543060 
	C104.726494,398.254272 104.695618,396.421906 104.632019,394.590668 
	C104.361679,386.807037 105.658646,378.895294 102.845642,371.315277 
	C93.753716,346.815735 84.665161,322.314880 75.525528,297.833130 
	C71.477829,286.990845 72.873749,288.223907 62.922176,291.839264 
	C51.593010,295.955078 45.908504,294.132965 38.926136,284.202393 
	C31.489803,273.626251 27.309275,261.731384 25.755890,249.009872 
	C24.205441,236.312439 26.365435,233.361771 38.593117,229.245911 
	C40.013004,228.767990 41.416191,228.069489 42.875046,227.909042 
	C48.083454,227.336227 48.404854,224.457413 47.103794,220.198624 
	C43.440022,208.206009 41.562935,195.839645 40.835140,183.377228 
	C38.703167,146.870377 45.585293,112.222923 65.339821,81.137550 
	C95.626183,33.479488 138.714249,9.235407 195.943420,13.698694 
	C225.859573,16.031845 252.048080,28.331238 273.666290,48.889034 
	C307.677917,81.232292 323.050385,121.952972 324.262085,168.396301 
	C324.729706,186.320343 322.066864,203.912643 317.718750,221.245575 
	C316.769653,225.028946 317.558167,226.878967 321.459045,227.495163 
	C325.453430,228.126083 329.025085,230.030762 332.615967,231.772415 
	C337.234131,234.012344 339.481781,237.576065 339.437103,242.932068 
	C339.316711,257.379242 334.808624,270.475372 327.235168,282.493896 
	C319.808685,294.279236 310.886627,296.763367 298.136841,290.636566 
	C293.616760,288.464447 292.167755,289.712372 290.687317,293.869263 
	C282.981384,315.506348 275.404388,337.199951 267.101959,358.609955 
	C262.323486,370.932526 259.179169,383.277618 260.340485,396.544189 
	C260.468689,398.008301 260.124878,399.513733 260.000000,401.000000 
M104.180908,212.302887 
	C109.866379,219.254074 116.714752,224.361282 126.004478,224.851700 
	C132.817795,225.211365 139.660965,225.012039 146.490906,225.047333 
	C150.357941,225.067307 154.033127,224.061401 156.105484,220.704437 
	C160.735962,213.203705 167.531204,208.801285 175.566956,205.887787 
	C179.191971,204.573441 180.577454,201.803375 180.543228,198.081558 
	C180.440674,186.927719 180.543900,175.769470 180.261292,164.620682 
	C180.074661,157.258163 179.594849,157.225449 172.711670,159.714371 
	C169.662247,160.817047 166.930161,163.697479 163.064072,162.273666 
	C163.167816,159.383163 165.103378,158.336731 167.068542,157.465302 
	C169.958328,156.183823 172.891220,154.981827 175.866776,153.916382 
	C178.926453,152.820831 180.349335,150.874054 180.329620,147.546173 
	C180.208298,127.055908 180.127518,106.564926 180.178894,86.074547 
	C180.188492,82.244286 179.035110,80.632324 174.950516,81.033714 
	C170.293518,81.491341 166.500641,79.510773 163.929001,75.509247 
	C162.407486,73.141777 160.514404,71.458565 157.539047,71.317245 
	C156.118698,71.249786 154.696457,70.861252 155.011444,69.034340 
	C155.313004,67.285423 156.920456,67.391762 158.220581,67.436134 
	C162.308578,67.575645 165.574570,69.086197 167.674927,72.871544 
	C169.632172,76.399002 172.794724,77.522980 176.625626,76.358887 
	C180.161133,75.284569 180.500427,72.441727 180.687866,69.210022 
	C182.062347,45.511173 157.954498,35.359871 140.974640,41.763584 
	C125.884186,47.454727 117.196602,62.832199 121.228531,76.528610 
	C122.107307,79.513817 123.489067,81.193573 126.771965,82.019440 
	C134.795532,84.037903 137.911331,88.175583 138.639435,96.555168 
	C138.797882,98.378586 138.812897,100.214470 138.893295,102.044640 
	C139.272675,110.679848 141.403336,113.345879 149.833298,115.599251 
	C150.954193,115.898872 152.353180,115.821220 152.383255,117.394203 
	C152.419983,119.316650 150.841797,119.198616 149.528900,119.346626 
	C143.592438,120.015869 138.719849,117.048950 136.087143,111.112373 
	C133.928970,106.245842 133.875580,101.056755 133.984680,95.890991 
	C134.087708,91.013756 131.693909,88.103516 127.325089,86.471100 
	C120.566063,83.945549 114.508575,85.833725 108.909966,89.637573 
	C96.424706,98.120384 90.780640,118.400116 96.920380,132.187256 
	C97.748840,134.047592 98.609940,135.964752 100.777657,136.478027 
	C105.712204,137.646454 109.031151,141.361801 113.004669,144.035263 
	C114.184166,144.828857 115.598907,145.775818 114.362778,147.905914 
	C110.786453,148.169998 108.408195,145.643906 105.793098,143.813019 
	C102.735275,141.672165 100.335464,141.979218 98.168633,145.083603 
	C91.602959,154.490097 95.928070,170.870132 106.293274,175.785126 
	C109.934204,177.511581 113.820229,177.130447 117.605255,177.040680 
	C125.269135,176.858902 130.811661,179.675980 133.661041,187.095032 
	C135.504456,191.894791 139.232346,193.901733 144.253967,193.835617 
	C146.251129,193.809326 148.254227,193.854263 150.246704,193.986359 
	C151.582214,194.074905 153.111435,194.284500 153.180634,196.034668 
	C153.267227,198.224945 151.455688,198.107956 149.992554,198.256332 
	C140.547119,199.214172 132.813324,196.936722 128.696899,187.347488 
	C127.237534,183.947876 124.619278,181.426666 120.699478,181.464355 
	C112.356018,181.544601 104.020790,181.910355 97.681648,175.101028 
	C92.789948,181.973206 95.304314,201.250046 104.180908,212.302887 
M234.149475,47.345478 
	C222.923523,38.751236 210.920807,36.901054 198.217773,43.680428 
	C187.387131,49.460533 184.394348,59.187138 185.330734,70.726082 
	C185.550537,73.434547 186.214493,75.747818 189.085602,76.524956 
	C191.807327,77.261650 194.384628,76.965469 196.305283,74.510796 
	C197.635986,72.810081 198.830399,70.943520 200.411011,69.509628 
	C203.928543,66.318596 207.976868,66.193665 211.131927,69.481888 
	C207.024567,70.858818 203.215500,72.448990 200.931168,76.129662 
	C198.469650,80.095840 194.662598,81.739120 190.248566,81.109322 
	C185.904907,80.489578 185.224258,82.397278 185.238953,86.093681 
	C185.317169,105.749977 185.409943,125.410431 185.055618,145.061478 
	C184.957428,150.506348 186.898865,153.482971 191.847397,155.084457 
	C194.053177,155.798325 196.185104,156.812408 198.238342,157.901749 
	C199.759933,158.709015 201.719193,159.379257 201.326263,162.072678 
	C195.744492,162.996353 191.389908,157.719055 185.831055,158.659775 
	C185.634857,159.382767 185.396652,159.854034 185.394958,160.326157 
	C185.350418,172.819122 185.544647,185.318069 185.200806,197.802307 
	C185.062744,202.814194 186.898743,205.421005 191.501648,207.072388 
	C198.317749,209.517746 204.435669,212.965164 208.199280,219.758820 
	C210.137543,223.257584 213.728897,224.952179 217.900681,224.937683 
	C224.229523,224.915680 230.565948,224.704819 236.885376,224.941452 
	C244.970703,225.244202 251.408371,221.889603 257.033813,216.549316 
	C265.565369,208.450211 269.452881,198.121216 270.391632,186.702057 
	C270.698486,182.969772 270.508575,178.833511 267.669922,175.046753 
	C261.679199,181.303833 254.287979,181.963837 246.635788,181.350586 
	C241.473831,180.936905 237.929443,182.854355 235.997467,187.682602 
	C232.820862,195.621307 226.539993,198.483810 218.484619,198.110641 
	C216.214386,198.005478 212.230515,199.354141 212.123459,196.264236 
	C211.988007,192.354828 216.172867,193.939819 218.457062,193.926788 
	C223.647446,193.897171 228.547623,192.973999 230.541046,187.784470 
	C234.130676,178.439453 241.154633,176.658081 250.098587,176.832169 
	C265.442627,177.130829 274.766815,162.380661 268.509460,148.331039 
	C265.355865,141.250244 264.132446,140.956451 257.532227,145.013229 
	C255.386063,146.332336 253.361572,148.972549 250.142883,147.145554 
	C251.665710,143.729950 258.497009,137.689301 262.394958,136.863495 
	C265.569672,136.190933 267.316467,134.398972 268.564758,131.676483 
	C275.793854,115.910133 266.532196,92.897537 250.432098,86.665825 
	C239.616943,82.479713 231.327988,88.029427 231.377335,99.560410 
	C231.399307,104.693069 230.482224,109.518921 227.614761,113.804596 
	C224.044510,119.140640 218.487701,120.687935 213.091629,118.010925 
	C213.045975,115.534966 215.067703,115.807556 216.575684,115.409225 
	C223.111084,113.682854 226.248566,109.845032 226.671844,102.988503 
	C226.764114,101.493820 226.740952,99.991402 226.751740,98.492401 
	C226.822464,88.674355 229.459869,84.722794 238.622345,81.928368 
	C241.628189,81.011627 243.062469,79.342049 243.802719,76.575089 
	C246.888931,65.039345 243.267914,55.642090 234.149475,47.345478 
M130.614853,241.876114 
	C131.574814,243.025482 132.440018,244.272766 133.509918,245.308563 
	C141.293884,252.844589 150.663849,255.676208 161.063553,253.015152 
	C171.152237,250.433685 178.041931,243.894409 180.081207,233.334808 
	C181.412750,226.439926 180.512619,219.391876 180.536163,212.413773 
	C180.544418,209.967224 179.019547,209.247559 176.783951,210.187759 
	C171.087936,212.583160 165.464615,214.976349 161.934509,220.591904 
	C157.980743,226.881393 152.258682,229.854355 144.659851,229.392029 
	C139.517181,229.079117 134.338989,229.323807 129.177032,229.363556 
	C126.042274,229.387695 124.938095,230.764282 126.178818,233.844803 
	C127.242989,236.487000 128.478333,239.011581 130.614853,241.876114 
M239.515076,234.158264 
	C240.745712,230.745239 239.744781,229.167145 235.927460,229.333450 
	C231.772110,229.514450 227.559677,228.980728 223.447449,229.437149 
	C213.759872,230.512466 206.838943,226.924408 201.672058,218.652267 
	C198.205597,213.102539 191.929123,211.912567 185.258865,209.717896 
	C185.258865,217.604095 185.274551,224.389206 185.254333,231.174225 
	C185.235184,237.602188 187.927078,242.760605 192.681183,246.897675 
	C208.015930,260.242188 230.652878,254.366074 239.515076,234.158264 
z"/>
<path fill="#000000" opacity="1.000000" stroke="none" 
	d="
M141.089630,166.357819 
	C139.683090,165.723251 138.511490,165.340012 137.694000,164.577255 
	C136.290222,163.267471 134.102356,161.610764 135.753815,159.648132 
	C137.472580,157.605560 139.025772,159.984711 140.223953,161.095535 
	C142.892136,163.569138 147.181046,162.014816 149.856339,165.179550 
	C147.415619,168.721329 144.322021,166.842072 141.089630,166.357819 
z"/>
<path fill="#000000" opacity="1.000000" stroke="none" 
	d="
M137.048111,141.017334 
	C135.872406,143.210144 134.853226,145.103745 133.655106,146.876404 
	C132.963730,147.899323 131.856064,148.438828 130.669525,147.586777 
	C129.686157,146.880630 129.855911,145.816010 130.334839,144.910339 
	C131.258194,143.164322 132.064438,141.276794 133.342758,139.819473 
	C134.745911,138.219833 136.456161,137.766724 137.048111,141.017334 
z"/>
<path fill="#000000" opacity="1.000000" stroke="none" 
	d="
M216.205841,166.503052 
	C215.615829,165.595932 215.423462,164.564041 216.016769,164.451752 
	C220.849823,163.537201 225.143005,161.389175 229.110352,158.146530 
	C230.917084,164.802383 225.135818,168.328705 216.205841,166.503052 
z"/>
<path fill="#000000" opacity="1.000000" stroke="none" 
	d="
M229.281311,143.565857 
	C228.493881,141.952896 226.954071,140.488632 228.701080,139.307159 
	C230.591873,138.028458 231.652847,139.817459 232.656662,141.146088 
	C232.756958,141.278809 232.879822,141.405106 232.940811,141.555283 
	C233.748566,143.544601 236.864731,145.855957 234.274200,147.545242 
	C231.564163,149.312439 230.842377,145.540726 229.281311,143.565857 
z"/>
</svg>